# xmcd
#
# Track frame offsets:
#	150
#	16325
#	35412
#	47042
#	67242
#	81895
#	97310
#	124067
#	137142
#	156270
#	175362
#	193470
#	211450
#	226480
#
# Disc length: 3353 seconds
#
# Revision: 5
# Processed by: cddbd v1.5.2PL0 Copyright (c) Steve Scherf et al.
# Submitted via: VUPlayer 2.49
#
DISCID=d50d170e
DTITLE=Free - The Best Of Free - Alright Now
DYEAR=1991
DGENRE=Blues
TTITLE0=Wishing Well
TTITLE1=All Right Now
TTITLE2=Little Bit Of love
TTITLE3=Come Together In The Morning
TTITLE4=The Stealer
TTITLE5=Sail On
TTITLE6=Mr. Big
TTITLE7=My Brother Jake
TTITLE8=The Hunter
TTITLE9=Be My Friend
TTITLE10=Travellin' In Style
TTITLE11=Fire And Water
TTITLE12=Travelling Man
TTITLE13=Don't Say You Love Me
EXTD=ID3G:   0
EXTT0=
EXTT1=
EXTT2=
EXTT3=
EXTT4=
EXTT5=
EXTT6=
EXTT7=
EXTT8=
EXTT9=
EXTT10=
EXTT11=
EXTT12=
EXTT13=
PLAYORDER=
